<?xml version="1.0" encoding="utf-8"?>
<!-- Generator: Adobe Illustrator 24.0.0, SVG Export Plug-In . SVG Version: 6.00 Build 0)  -->
<svg version="1.1" id="Livello_1" xmlns="http://www.w3.org/2000/svg" xmlns:xlink="http://www.w3.org/1999/xlink" x="0px" y="0px"
	 viewBox="0 0 1920 1080" style="enable-background:new 0 0 1920 1080;" xml:space="preserve">
<style type="text/css">
	.st0{fill:#FF5A19;}
</style>
<g>
	<g>
		<path class="st0" d="M881.56,698.25c-0.71,0-1.42-0.02-2.14-0.07c-12.11-0.83-22.62-8.65-26.91-20L807.66,559.5
			c-6.06-16.04,2.03-33.96,18.07-40.02c16.04-6.06,33.96,2.03,40.02,18.07l21.79,57.65c19.84-31.91,40.63-61.65,62.12-88.85
			c35.43-44.84,73.95-84.25,114.48-117.16c13.31-10.81,32.86-8.78,43.67,4.53c10.81,13.31,8.78,32.87-4.53,43.67
			c-72.82,59.12-138.24,141.44-194.46,244.65C903.36,692.08,892.87,698.25,881.56,698.25z"/>
		<path d="M881.56,702.25c-0.8,0-1.61-0.03-2.41-0.08c-13.63-0.94-25.55-9.8-30.38-22.58l-44.85-118.67
			c-6.83-18.08,2.32-38.34,20.4-45.17c8.76-3.31,18.28-3.01,26.81,0.84c8.53,3.85,15.05,10.8,18.36,19.55l18.94,50.12
			c18.61-29.43,38.13-57.11,58.09-82.38c35.61-45.06,74.34-84.69,115.09-117.79c15-12.18,37.12-9.89,49.3,5.12
			c12.18,15,9.89,37.12-5.12,49.3c-72.41,58.79-137.5,140.7-193.47,243.46C906.19,695.24,894.4,702.25,881.56,702.25z
			 M836.72,521.46c-3.23,0-6.46,0.59-9.57,1.76c-13.95,5.27-21.01,20.91-15.74,34.86l44.85,118.67c3.73,9.86,12.93,16.7,23.44,17.42
			c10.59,0.72,20.57-4.8,25.61-14.05c56.47-103.68,122.23-186.39,195.45-245.84c11.58-9.4,13.35-26.47,3.95-38.05
			c-9.4-11.58-26.47-13.35-38.05-3.95c-40.3,32.72-78.61,71.93-113.86,116.54c-21.32,26.98-42.13,56.75-61.87,88.48l-4.28,6.88
			l-24.65-65.23c-2.55-6.76-7.59-12.12-14.17-15.09C844.28,522.27,840.51,521.46,836.72,521.46z"/>
	</g>
</g>
</svg>
