<?xml version="1.0" encoding="utf-8"?>
<!-- Generator: Adobe Illustrator 24.0.0, SVG Export Plug-In . SVG Version: 6.00 Build 0)  -->
<svg version="1.1" id="Livello_1" xmlns="http://www.w3.org/2000/svg" xmlns:xlink="http://www.w3.org/1999/xlink" x="0px" y="0px"
	 viewBox="0 0 1920 1080" style="enable-background:new 0 0 1920 1080;" xml:space="preserve">
<style type="text/css">
	.st0{fill:#FF5A19;}
</style>
<g>
	<g>
		<path class="st0" d="M1106.65,643.2c-17.34-30.86-35.57-59.46-54.19-85c-15.49-21.25-31.62-40.89-48.09-58.57
			c26.5-21.46,53.97-37.83,82.31-49c15.54-6.13,23.16-23.69,17.04-39.22c-6.13-15.54-23.69-23.16-39.22-17.04
			c-24.55,9.68-48.66,22.58-71.66,38.33c-11.01,7.54-21.92,15.85-32.65,24.84c-10.73-9-21.64-17.3-32.65-24.84
			c-23.01-15.76-47.12-28.65-71.66-38.33c-15.53-6.12-33.1,1.5-39.22,17.04c-6.13,15.54,1.5,33.1,17.04,39.22
			c28.34,11.18,55.81,27.54,82.31,49c-16.47,17.68-32.6,37.32-48.09,58.57c-18.62,25.54-36.85,54.13-54.19,85
			c-8.18,14.56-3.01,32.99,11.55,41.17c4.68,2.63,9.77,3.88,14.78,3.88c10.57,0,20.84-5.56,26.39-15.43
			c29.41-52.33,60.72-96.31,93.75-131.73c33.03,35.43,64.34,79.4,93.75,131.73c5.55,9.87,15.81,15.43,26.39,15.43
			c5.02,0,10.1-1.25,14.78-3.88C1109.66,676.19,1114.83,657.76,1106.65,643.2z"/>
		<path d="M1080.32,692.25c-12.37,0-23.82-6.69-29.88-17.47c-28.24-50.25-58.59-93.23-90.26-127.8
			c-31.67,34.57-62.02,77.54-90.26,127.8c-6.05,10.78-17.5,17.47-29.88,17.47c-5.84,0-11.63-1.52-16.74-4.39
			c-16.46-9.25-22.32-30.16-13.08-46.62c17.42-31,35.74-59.73,54.44-85.39c14.63-20.07,29.91-38.81,45.47-55.78
			c-25.1-19.85-51.3-35.23-77.92-45.72c-8.51-3.35-15.2-9.82-18.84-18.21c-3.64-8.39-3.8-17.69-0.45-26.2
			c6.92-17.56,26.85-26.22,44.41-19.29c24.83,9.79,49.2,22.83,72.46,38.75c10.17,6.97,20.38,14.68,30.39,22.94
			c10-8.26,20.21-15.97,30.39-22.94c23.25-15.92,47.63-28.96,72.46-38.75c17.57-6.92,37.49,1.73,44.41,19.29
			c3.36,8.51,3.2,17.81-0.45,26.2c-3.64,8.39-10.34,14.85-18.84,18.21c-26.62,10.5-52.82,25.87-77.92,45.72
			c15.56,16.96,30.84,35.71,45.47,55.78c18.71,25.67,37.03,54.4,54.44,85.39v0c4.48,7.97,5.59,17.21,3.12,26.02
			c-2.47,8.8-8.22,16.12-16.19,20.6C1091.95,690.73,1086.16,692.25,1080.32,692.25z M960.18,535.22l2.93,3.14
			c33.16,35.57,64.89,80.15,94.31,132.5c4.64,8.26,13.42,13.39,22.9,13.39c4.47,0,8.9-1.17,12.82-3.37
			c12.61-7.09,17.11-23.11,10.02-35.73l0,0c-17.26-30.72-35.41-59.19-53.93-84.6c-15.36-21.07-31.44-40.65-47.78-58.2l-2.92-3.14
			l3.33-2.7c26.75-21.66,54.79-38.35,83.36-49.62c6.52-2.57,11.65-7.53,14.44-13.95c2.79-6.43,2.91-13.56,0.34-20.08
			c-5.31-13.46-20.57-20.09-34.03-14.78c-24.27,9.57-48.11,22.33-70.87,37.91c-10.84,7.42-21.72,15.7-32.34,24.61l-2.57,2.15
			l-2.57-2.15c-10.63-8.91-21.51-17.19-32.34-24.61c-22.76-15.59-46.6-28.34-70.87-37.91c-13.46-5.31-28.73,1.33-34.03,14.78
			c-2.57,6.52-2.45,13.65,0.34,20.08c2.79,6.43,7.92,11.38,14.44,13.95c28.56,11.26,56.61,27.96,83.36,49.62l3.33,2.7l-2.92,3.14
			c-16.35,17.55-32.43,37.13-47.78,58.2c-18.52,25.41-36.67,53.87-53.93,84.6c-7.09,12.61-2.59,28.64,10.02,35.73
			c3.92,2.2,8.36,3.37,12.82,3.37c9.49,0,18.26-5.13,22.9-13.39c29.42-52.35,61.15-96.93,94.31-132.5L960.18,535.22z"/>
	</g>
</g>
</svg>
