<?xml version="1.0" encoding="UTF-8" standalone="no"?>
<!-- Generator: Adobe Illustrator 24.0.0, SVG Export Plug-In . SVG Version: 6.00 Build 0)  -->

<svg
   xmlns:dc="http://purl.org/dc/elements/1.1/"
   xmlns:cc="http://creativecommons.org/ns#"
   xmlns:rdf="http://www.w3.org/1999/02/22-rdf-syntax-ns#"
   xmlns:svg="http://www.w3.org/2000/svg"
   xmlns="http://www.w3.org/2000/svg"
   xmlns:sodipodi="http://sodipodi.sourceforge.net/DTD/sodipodi-0.dtd"
   xmlns:inkscape="http://www.inkscape.org/namespaces/inkscape"
   version="1.1"
   id="Livello_1"
   x="0px"
   y="0px"
   viewBox="0 0 1920 1080"
   style="enable-background:new 0 0 1920 1080;"
   xml:space="preserve"
   sodipodi:docname="LOGO.svg"
   inkscape:version="0.92.2 (5c3e80d, 2017-08-06)"><metadata
     id="metadata177"><rdf:RDF><cc:Work
         rdf:about=""><dc:format>image/svg+xml</dc:format><dc:type
           rdf:resource="http://purl.org/dc/dcmitype/StillImage" /></cc:Work></rdf:RDF></metadata><defs
     id="defs175" /><sodipodi:namedview
     pagecolor="#ffffff"
     bordercolor="#666666"
     borderopacity="1"
     objecttolerance="10"
     gridtolerance="10"
     guidetolerance="10"
     inkscape:pageopacity="0"
     inkscape:pageshadow="2"
     inkscape:window-width="1920"
     inkscape:window-height="1017"
     id="namedview173"
     showgrid="false"
     inkscape:zoom="0.37604167"
     inkscape:cx="435.81086"
     inkscape:cy="422.28281"
     inkscape:window-x="-8"
     inkscape:window-y="51"
     inkscape:window-maximized="1"
     inkscape:current-layer="Livello_1" /><style
     type="text/css"
     id="style2">
	.st0{fill:#FF951B;}
	.st1{fill:#FFB227;}
	.st2{fill:#C33200;}
	.st3{fill:#EB490D;}
	.st4{fill:#F8FB00;}
	.st5{fill:#FF9517;}
	.st6{fill:#FFD563;}
	.st7{fill:#00FA00;}
	.st8{fill:#008F00;}
	.st9{fill:#000101;}
	.st10{fill:#FFB026;}
	.st11{fill:#FFB02A;}
	.st12{fill:#FFAA28;}
	.st13{fill:#FFAA2B;}
	.st14{fill:#FFAC2E;}
	.st15{fill:#FF9A13;}
	.st16{fill:#FF5A19;}
</style><g
     id="g112"
     transform="matrix(0.82123227,0,0,0.82123227,173.20471,83.379087)"><g
       id="g46"><g
         id="g12"><g
           id="g6"><path
             class="st0"
             d="m 776.62,635.69 c -2.47,-0.82 -3.79,0.45 -5.19,2.47 -2.4,3.46 -6.14,4.11 -10,3.13 -2.01,-0.51 -3.94,-1.37 -5.88,-2.2 -13.55,21.09 -37.2,35.14 -63.98,35.14 H 511.9 c -8.42,0 -16.52,-1.41 -24.11,-3.97 13.6,13.65 30.24,20.32 49.3,20.38 58.69,0.19 117.37,0.09 176.06,0.03 4.14,0 8.36,-0.2 12.41,-0.98 25.51,-4.91 43.22,-20 54.98,-42.74 1.04,-2 1.39,-4.08 0.91,-6.26 -0.58,-2.61 -2.38,-4.19 -4.83,-5 z"
             id="path4"
             inkscape:connector-curvature="0"
             style="fill:#ff951b" /></g><g
           id="g10"><path
             class="st1"
             d="m 691.57,674.23 c 26.79,0 50.44,-14.06 63.98,-35.14 -0.57,-0.24 -1.14,-0.48 -1.71,-0.71 v 0 c -2.41,-2.34 -5.25,-3.01 -8.6,-3.03 -10.27,-0.04 -20.48,1.47 -30.81,0.2 -10.42,-1.28 -20.9,1.49 -31.31,0.79 -8.31,-0.56 -16.6,-0.71 -24.9,-0.99 -3.57,-0.12 -6.04,0.95 -7.81,4.03 -4.2,7.31 -11,9.13 -18.78,8.61 -12,-0.81 -22.68,-5.8 -33.31,-10.84 -2.55,-1.21 -5.04,-1.77 -7.84,-1.76 -24.98,0.06 -49.95,0.03 -74.93,0.04 -5.72,0 -11.48,-0.37 -17.09,1.2 -2.72,0.76 -5.5,0.57 -8.08,-0.23 -4.52,-1.4 -9.1,-1 -13.66,-0.91 -5.91,0.11 -9.11,5 -6.63,10.45 4.19,9.23 9.87,17.46 17.56,24.18 0.05,0.05 0.1,0.09 0.15,0.14 7.59,2.56 15.69,3.97 24.11,3.97 z"
             id="path8"
             inkscape:connector-curvature="0"
             style="fill:#ffb227" /></g></g><g
         id="g26"><g
           id="g16"><path
             class="st2"
             d="m 487.28,592.44 c 91.31,0 182.63,0 273.94,0 1.72,0 3.45,0.06 5.17,-0.02 13.58,-0.58 23.63,-13.94 20.57,-26.7 -3.34,9.73 -12.58,16.78 -23.41,16.78 h -52.29 c -7.54,3.02 -15.08,2.99 -22.64,0 H 490.6 c -12.92,0 -23.59,-10.03 -24.66,-22.68 -1.09,2.44 -2.4,6.34 -2.44,6.89 -1.23,15.01 8.69,25.73 23.78,25.73 z"
             id="path14"
             inkscape:connector-curvature="0"
             style="fill:#c33200" /></g><g
           id="g20"><path
             class="st3"
             d="m 786.96,565.73 c -0.08,-0.32 -0.15,-0.64 -0.25,-0.95 -0.85,-6.57 -4.98,-10.93 -10.29,-14.02 -13.18,-7.68 -34.88,-2.48 -43.2,10.28 -5.15,7.89 -11.11,14.91 -19.01,20.15 0,0 0,0 0,0 -0.98,0.5 -1.97,0.93 -2.95,1.32 h 52.29 c 10.83,0 20.07,-7.06 23.41,-16.78 z"
             id="path18"
             inkscape:connector-curvature="0"
             style="fill:#eb490d" /></g><g
           id="g24"><path
             class="st3"
             d="m 490.6,582.51 h 198.03 c -0.95,-0.37 -1.89,-0.78 -2.84,-1.25 0,0 0,0 0,0 v 0 c -5.15,-2.92 -9.54,-6.77 -13.91,-10.74 -5.6,-5.1 -10.5,-10.94 -16.71,-15.39 -4.5,-3.22 -5.93,-3.21 -9.98,0.7 -4.77,4.61 -9.85,8.75 -15.94,11.54 -8.59,3.94 -16.57,2.4 -23.18,-4.28 -3.38,-3.42 -5.35,-7.79 -8.28,-11.49 -1.85,-2.33 -3.87,-4.06 -7.14,-4.05 -34.86,0.05 -69.73,-0.06 -104.59,0.09 -8.48,0.04 -15.69,4.37 -19.45,10.85 -0.2,0.34 -0.43,0.81 -0.66,1.35 1.06,12.64 11.73,22.67 24.65,22.67 z"
             id="path22"
             inkscape:connector-curvature="0"
             style="fill:#eb490d" /></g></g><g
         id="g30"><path
           class="st4"
           d="m 471.76,536.09 c 39.48,0 78.96,0.08 118.44,-0.06 7.67,-0.03 13.18,3.07 17.23,9.34 1.56,2.41 3.09,4.84 4.73,7.19 4.26,6.09 8.3,6.99 14.67,3.23 4.24,-2.5 7.7,-5.96 11.31,-9.26 6.85,-6.27 13.6,-6.88 21.62,-2.21 3.5,2.04 6.47,4.73 9.4,7.49 6.36,5.99 12.12,12.67 19.48,17.55 8.62,5.72 16.13,5.3 24.01,-1.37 5,-4.23 8.53,-9.65 12.1,-15.06 5.95,-9.01 14.32,-14.23 25,-15.83 8.55,-1.29 17.14,-1.48 25.76,-1.23 2.72,0.08 5.47,0.24 8.16,-0.07 3.11,-0.36 4.86,-2.39 4.8,-5.61 -0.05,-2.98 -1.64,-4.87 -4.6,-5.34 -1.69,-0.27 -3.42,-0.3 -5.14,-0.3 -50.97,-0.01 -101.93,-0.01 -152.9,-0.01 -51.4,0 -102.79,0 -154.19,0 -6.63,0 -9.16,1.62 -9.12,5.82 0.05,4.19 2.54,5.73 9.24,5.73 z"
           id="path28"
           inkscape:connector-curvature="0"
           style="fill:#f8fb00" /></g><g
         id="g44"><g
           id="g34"><path
             class="st5"
             d="m 476.58,512.9 c 99.07,0 198.15,0 297.22,0 1,0 2.01,0.05 3.01,-0.03 6.83,-0.54 11.46,-5.66 11.73,-12.55 0.15,-3.7 -1.5,-6.68 -3.09,-9.72 -8.22,-15.75 -18.37,-30.18 -30.41,-43.22 -3.96,-4.29 -8.01,-8.53 -12.39,-12.4 -26.14,36.89 -91.23,63.03 -167.41,63.03 -38.61,0 -74.37,-6.72 -103.66,-18.14 -0.63,0.86 -1.12,1.8 -1.43,2.85 0,0 0,0 0,0 -2.64,3.1 -4.11,6.88 -5.89,10.45 -5.12,10.31 0.81,19.73 12.32,19.73 z"
             id="path32"
             inkscape:connector-curvature="0"
             style="fill:#ff9517" /></g><g
           id="g38"><path
             class="st1"
             d="m 742.66,434.99 c -2.7,-2.39 -5.52,-4.64 -8.53,-6.68 -0.93,-0.88 -1.79,-1.84 -2.8,-2.61 -13.59,-10.51 -28.32,-19.06 -44.39,-25.18 -12.63,-4.81 -25.51,-8.66 -39.03,-9.89 6.1,14.42 7.64,29.09 3.66,42.98 -14.07,49.07 -91.73,69.86 -173.46,46.42 -1.78,-0.51 -3.54,-1.04 -5.29,-1.59 -0.01,0.01 -0.02,0.03 -0.02,0.04 -0.45,0.44 -0.84,0.91 -1.2,1.4 29.29,11.42 65.05,18.14 103.66,18.14 76.16,0 141.26,-26.14 167.4,-63.03 z"
             id="path36"
             inkscape:connector-curvature="0"
             style="fill:#ffb227" /></g><g
           id="g42"><path
             class="st6"
             d="m 651.57,433.6 c 3.98,-13.89 2.44,-28.55 -3.66,-42.98 -0.57,-0.05 -1.14,-0.11 -1.71,-0.15 -15.14,-2.6 -30.33,-2.08 -45.38,0.24 -39.76,6.12 -73.39,24.29 -101.37,53.05 -10.21,10.49 -19.54,21.73 -26.63,34.66 1.75,0.54 3.51,1.08 5.29,1.59 81.72,23.45 159.38,2.66 173.46,-46.41 z"
             id="path40"
             inkscape:connector-curvature="0"
             style="fill:#ffd563" /></g></g></g><g
       id="g72"><g
         id="g50"><path
           class="st7"
           d="m 799.68,626.33 c 0.22,-0.07 0.43,-0.14 0.65,-0.2 0.13,-0.27 0.26,-0.53 0.39,-0.8 0,0 0,0 0,0 4.17,-0.96 7.56,-4.16 12.35,-3.7 -1.14,-3.86 -5.54,-5.16 -5.42,-9.11 0.1,-3.51 -1.96,-5.81 -4.4,-7.81 -1.99,-1.62 -3.79,-3.43 -5.03,-5.62 -1.57,-2.78 -3.74,-3.65 -6.76,-3.19 -1.06,0.16 -2.15,0.18 -3.23,0.2 -1.52,3.28 -0.99,5.17 5.38,11.11 0.89,0.83 0.26,2.32 -0.96,2.27 -6.18,-0.24 -10.18,0.57 -12.98,2.46 0.57,3.03 0.14,5.72 -4.06,7.28 5.78,1.87 9.54,5.59 14.67,6.2 2.96,2.78 6.18,1.91 9.4,0.91 z"
           id="path48"
           inkscape:connector-curvature="0"
           style="fill:#00fa00" /></g><g
         id="g54"><path
           class="st7"
           d="m 733.02,614.14 c -2.95,-3.44 -8.33,-3.27 -11.05,0.36 l -1.61,2.14 -0.98,0.42 c 0.35,2.21 -0.81,4.08 -1.75,5.91 -1.08,2.11 -1.37,3.07 1.45,4.28 6.24,2.68 11.89,1.86 18.01,-1.15 -1.86,-1.49 -3.33,-2.75 -4.88,-3.9 -3.34,-2.49 -3.33,-4.17 0.1,-6.47 1.3,0.07 2.5,0.34 3.62,0.76 l -1.75,-1 z"
           id="path52"
           inkscape:connector-curvature="0"
           style="fill:#00fa00" /></g><g
         id="g58"><path
           class="st7"
           d="m 699.63,610.88 c -12.51,4.62 -20.28,6.43 -23.83,5.72 -7.14,-2.47 -13.92,-3.98 -19.93,-3.41 -5.76,0.82 -10.34,8.1 -15.42,11.36 -2.04,1.3 -8.76,1.31 -14.97,0.12 -11.38,-2.17 -21.04,-7.01 -31.62,-13.72 -2.36,-0.79 -4.91,-0.82 -7.3,-0.1 l -16.84,5.12 c 4.62,1.76 9.49,2.79 13.86,5.3 6.93,3.98 13.95,7.97 21.14,11.31 7.3,3.4 14.94,6.76 23.05,7.96 7.21,1.06 14.12,0.52 18.08,-7.39 1.94,-3.87 5.84,-5.81 9.51,-7.96 4.76,-2.78 10.6,-3.84 14.13,-8.64 0,0 0,0 0,0 0,0 0,0 0,0 2.85,-1.27 5.16,-1.47 5.27,2.67 0.02,0.85 -0.04,1.7 -0.06,2.55 -0.8,2.37 -3.56,2.78 -5.06,4.67 15.06,4.74 28.8,3.27 41.18,-6.58 0,0 0,0 0,0 0,0 0,0 0,0 1,-0.55 1.42,-1.32 1.6,-2.18 -0.24,-0.7 -0.66,-1.43 -1.26,-2.2 -3.33,-0.02 -7.34,-2.05 -11.53,-4.6 z"
           id="path56"
           inkscape:connector-curvature="0"
           style="fill:#00fa00" /></g><g
         id="g62"><path
           class="st7"
           d="m 752.61,610.88 c -2.12,9.44 -5.51,12.84 -10.37,9.21 l -2.69,-1.54 c 0.71,0.58 1.38,1.23 2.01,1.95 0.84,0.96 1.66,1.41 2.88,1.11 4.85,3.8 9.07,8.37 14.74,11.16 0.03,0.02 0.06,0.04 0.1,0.05 4.75,2.32 7.76,1.05 8.07,-4.26 0.27,-4.69 0.15,-9.38 2.18,-13.77 0,0 0,0 0,0 0,0 0,0 0.01,0 0.24,-0.19 0.48,-0.38 0.72,-0.57 l -15.34,-6.82 c -1.98,-0.63 -2.69,1.36 -2.31,3.48 z"
           id="path60"
           inkscape:connector-curvature="0"
           style="fill:#00fa00" /></g><g
         id="g66"><path
           class="st7"
           d="m 461.23,606.28 -0.46,-1.74 c -0.55,0.51 -1.08,1.04 -1.56,1.63 -4.06,2.88 -8.12,5.77 -12.18,8.65 -2.04,0.66 -4.12,1.28 -5.05,3.54 -0.85,0.81 -1.79,1.53 -2.69,2.29 -0.98,0.83 -1.9,1.71 -2.57,2.85 -2.89,2.34 -2.89,3.33 0,4.91 0,0 0,0 0,0 0,0 0,0 0,0 0,0 0,0 0,0 1.11,0.14 2.23,0.27 3.34,0.41 0,0 0,0 0,0 0.6,0.27 1.2,0.54 1.8,0.82 0,0 0,0 0,0 0,0 0,0 0,0 0.35,0.15 0.71,0.28 1.07,0.39 3.61,1.11 7.35,0.13 11.02,0.32 1,0.05 1.58,-0.48 1.7,-1.49 7.95,-0.64 13.47,-5.6 18.94,-10.66 0,0 0,0 0,0 0.83,-0.34 1.39,-0.92 1.86,-1.58 -16.51,-0.38 -18.21,-5.36 -15.22,-10.34 z"
           id="path64"
           inkscape:connector-curvature="0"
           style="fill:#00fa00" /></g><g
         id="g70"><path
           class="st7"
           d="m 525.72,614.34 c -4.63,2.74 -10.05,2.96 -16.12,1.15 -9.21,-3.46 -12.67,-12.67 -12.67,-4.61 l -1.73,0.54 c 0,0 0,0 0,0 -0.44,2.17 -1.68,3.34 -3.97,3.59 -3.31,0.36 -5.89,2.04 -8.22,4.47 -1.84,1.92 -1.73,2.99 0.16,4.76 6.89,6.42 14.51,5.58 22.43,2.63 0.91,0.07 1.74,-0.07 1.83,-1.18 0.07,-0.88 -0.21,-1.73 -1.22,-1.91 -1.24,-0.22 -2.5,-0.32 -3.75,-0.46 -0.16,-1.69 -0.88,-3.46 0.64,-4.93 3.75,-0.06 7.5,-0.11 11.25,-0.17 3.85,0.1 7.3,1.74 10.92,2.78 6.43,1.85 12.2,5.78 19.1,6.12 0,0 0,0 0,0 0.33,0.26 0.66,0.52 0.98,0.78 0,0 0,0 0,0 0,0 0,0 0,0 6.54,1.69 13.17,0.68 19.76,0.5 0.31,-0.01 0.59,-0.85 0.89,-1.3 0,0 0,0 0,0 1.66,-0.86 3.32,-1.72 5.96,-3.09 -4.5,-0.49 -7.47,-2.11 -10.96,-2.38 -6.07,-0.47 -12.08,-1.78 -18.22,-1.42 -2.2,0.13 -3.81,-1.22 -3.82,-3.06 0,-1.93 1.17,-3.85 3.71,-3.93 1.43,-0.04 2.86,-0.12 4.29,-0.19 v 0 c 0.53,0.02 1.06,0.03 1.59,0.05 -7.62,-5.31 -16.22,-5.34 -22.83,1.26 z"
           id="path68"
           inkscape:connector-curvature="0"
           style="fill:#00fa00" /></g></g><g
       id="g76"><path
         class="st8"
         d="m 792.65,609.48 c 1.21,0.05 1.85,-1.44 0.96,-2.27 -6.37,-5.94 -6.91,-7.84 -5.38,-11.11 -0.49,0.01 -0.99,0.02 -1.48,0.04 0,0 0,0 0,0 -0.93,-0.04 -1.54,0.4 -2.09,0.94 -0.43,0.42 -0.82,0.9 -1.28,1.27 -3.1,2.47 -6.65,3.81 -10.51,4.46 -1.82,0 -3.63,0 -5.45,0 -58.31,0 -116.63,-0.01 -174.94,0.01 -37.6,0.01 -75.2,0.05 -112.79,0.08 0,0 0,0 0,0 0,0 0,0 0,0 -2.11,-0.07 -4.08,-0.11 -6.07,-1.41 -1.58,-1.04 -4.22,-1.98 -5.71,-1.36 -2.55,1.07 -5.05,2.47 -7.15,4.41 l 0.46,1.74 c -2.99,4.99 -1.29,9.96 15.22,10.34 0.59,-0.82 1.04,-1.77 1.69,-2.54 2.99,-3.52 6.49,-5.72 11.37,-6.25 3.44,-0.38 3.95,2.21 5.7,3.6 l 1.73,-0.54 c 0,-8.06 3.46,1.15 12.67,4.61 6.07,1.81 11.5,1.59 16.12,-1.15 6.6,-6.6 15.21,-6.57 22.85,-1.27 2.36,0.07 4.72,0.14 7.08,0.2 2.01,2.01 4.53,1.7 7.02,1.52 0,0 0,0 0,0 0,0 0,0 0,0 2.1,-0.43 3.89,1.49 6.03,0.78 0.34,0.14 0.68,0.26 1.03,0.4 l 16.84,-5.12 c 2.38,-0.73 4.93,-0.69 7.3,0.1 10.57,6.72 20.24,11.55 31.62,13.72 6.21,1.19 12.94,1.18 14.97,-0.12 5.09,-3.26 9.67,-10.54 15.42,-11.36 6.01,-0.57 12.79,0.95 19.93,3.41 3.55,0.71 11.33,-1.09 23.83,-5.72 4.19,2.55 8.2,4.57 11.52,4.61 0.6,0.77 1.02,1.5 1.26,2.2 0.19,-0.85 0.15,-1.79 0.26,-2.68 1.68,-0.04 3.37,-0.08 5.05,-0.12 0.22,0.84 0.44,1.68 1.57,1.63 0.05,0.19 0.07,0.36 0.1,0.54 l 0.98,-0.42 1.61,-2.14 c 2.72,-3.63 8.1,-3.8 11.05,-0.36 l 1.16,1.35 1.75,1 c 1.32,0.48 2.52,1.18 3.62,2.07 l 2.69,1.54 c 4.86,3.62 8.25,0.23 10.37,-9.21 -0.38,-2.12 0.33,-4.11 2.3,-3.46 l 15.34,6.82 c 2.72,-2.1 5.6,-3.69 9.31,-2.79 0.04,0.17 0.07,0.33 0.1,0.49 2.79,-1.91 6.79,-2.72 12.97,-2.48 z"
         id="path74"
         inkscape:connector-curvature="0"
         style="fill:#008f00" /></g><g
       id="g80"><path
         class="st9"
         d="m 791.23,633.84 c 3.53,0.14 6.89,0.31 9.93,-0.45 1.24,-0.31 2.44,-0.77 3.57,-1.47 3.5,-2.18 7.01,-2.85 11,-2.52 3.04,0.26 6.36,0.12 7.78,-3.22 1.31,-3.07 -0.74,-5.53 -2.61,-7.73 -1.95,-2.29 -5.04,-4.12 -5.49,-7.05 -1.44,-9.28 -9.67,-13.56 -14.4,-20.37 -2.62,-3.77 -5.73,-6.69 -3.25,-11.74 0.79,-1.61 0.89,-3.61 1.08,-5.46 1.08,-10.45 -2.03,-19.55 -9.12,-27.26 1.15,-0.84 2.18,-1.68 3.14,-2.5 9.32,-8.01 9.64,-15.39 1.61,-26.4 -0.76,-1.05 -0.72,-1.58 -0.04,-2.55 7.27,-10.35 5.86,-20.54 0.06,-31.12 -12.16,-22.19 -27.09,-42.13 -46.03,-58.68 -1.84,-1.61 -3.7,-3.19 -5.62,-4.73 -31.5,-25.34 -65.44,-39.98 -101.66,-42.89 -21.81,-1.76 -44.45,0.74 -67.88,7.71 -49.44,14.71 -85.43,46.29 -111.4,89.36 -0.16,0.27 -0.33,0.54 -0.49,0.81 -1.92,3.21 -3.79,6.48 -5.61,9.82 -5.5,10.12 -6.01,19.88 0.64,29.57 0.82,1.19 0.74,1.75 -0.13,2.87 -4.03,5.23 -5.82,10.08 -5.41,14.55 0.4,4.35 2.9,8.33 7.5,11.94 0.88,0.69 1.8,1.36 2.83,2.02 -0.95,1.26 -1.91,2.51 -2.84,3.78 -4.56,6.14 -6.7,13.7 -6.44,21.2 0.18,5.17 1.51,10.3 3.97,14.94 0.22,0.42 0.43,0.84 0.67,1.25 1.54,2.63 5.88,4.62 4.46,7.65 -0.44,0.93 -1.21,1.7 -2.13,2.4 -1.67,1.27 -3.86,2.3 -5.59,3.55 -0.23,0.17 -0.48,0.32 -0.71,0.49 -5.15,3.71 -10.45,7.25 -15.27,11.37 -0.59,0.5 -1.17,1.01 -1.75,1.53 -1.63,1.48 -3.19,3.05 -4.65,4.73 -5,5.77 -5.2,10.62 -0.94,13.75 1.54,1.13 3.65,2.04 6.35,2.68 3.36,0.8 6.72,1.06 10.1,1.05 4.02,-0.01 8.06,-0.41 12.1,-0.85 -1.14,7.32 -1.17,10.53 0.81,14.44 0.9,1.78 1.84,3.52 2.8,5.22 0.27,0.47 0.54,0.93 0.81,1.4 16.33,28.18 40.46,44.85 74.86,45.06 57.59,0.37 115.18,-0.04 172.77,0.15 34.71,0.11 59.88,-15.78 77.48,-44.99 0.04,-0.07 0.09,-0.15 0.13,-0.22 4.27,-7.12 7.3,-14.46 3.01,-23.09 z M 655.17,555.12 c 6.2,4.45 11.11,10.3 16.71,15.39 4.37,3.97 8.76,7.83 13.91,10.74 v 0 c 0,0 0,0 0,0 0.95,0.47 1.89,0.88 2.84,1.25 7.55,2.99 15.1,3.02 22.64,0 0.98,-0.39 1.97,-0.83 2.95,-1.32 0,0 0,0 0,0 7.9,-5.24 13.86,-12.26 19.01,-20.15 3.56,-5.46 9.58,-9.53 16.33,-11.8 9.01,-3.04 19.33,-2.86 26.87,1.53 2.55,1.48 4.82,3.26 6.59,5.44 1.92,2.35 3.25,5.16 3.7,8.58 0.09,0.32 0.17,0.63 0.25,0.95 1.03,4.28 0.56,8.62 -1,12.53 -1.76,4.4 -4.91,8.25 -8.97,10.82 -2.84,1.8 -6.12,2.97 -9.65,3.28 -0.31,0.03 -0.63,0.05 -0.94,0.07 -1.72,0.07 -3.45,0.02 -5.17,0.02 -91.31,0 -182.63,0 -273.94,0 -15.09,0 -25.01,-10.72 -23.78,-25.73 0.04,-0.54 1.36,-4.44 2.44,-6.89 0.24,-0.53 0.46,-1 0.66,-1.35 3.75,-6.48 10.96,-10.81 19.45,-10.85 34.86,-0.15 69.73,-0.04 104.59,-0.09 3.28,-0.01 5.3,1.72 7.14,4.05 2.93,3.7 4.9,8.08 8.28,11.49 6.61,6.67 14.59,8.21 23.18,4.28 6.08,-2.79 11.17,-6.93 15.94,-11.54 4.04,-3.91 5.47,-3.92 9.97,-0.7 z m -190.9,-61.94 c 1.78,-3.57 3.25,-7.35 5.89,-10.45 0,0 0,0 0,0 0.31,-1.06 0.8,-2 1.43,-2.85 0.36,-0.49 0.75,-0.97 1.2,-1.4 0.01,-0.01 0.02,-0.03 0.02,-0.04 7.09,-12.93 16.42,-24.17 26.63,-34.66 27.98,-28.77 61.62,-46.93 101.37,-53.05 15.05,-2.32 30.24,-2.84 45.38,-0.24 0.57,0.04 1.14,0.1 1.71,0.15 13.52,1.23 26.4,5.08 39.03,9.89 16.07,6.11 30.8,14.66 44.39,25.18 1.01,0.78 1.87,1.74 2.8,2.61 3.01,2.04 5.83,4.3 8.53,6.68 4.38,3.87 8.42,8.11 12.39,12.4 12.03,13.04 22.18,27.47 30.41,43.22 1.59,3.04 3.23,6.02 3.09,9.72 -0.27,6.89 -4.9,12.01 -11.73,12.55 -1,0.08 -2.01,0.03 -3.01,0.03 -99.07,0 -198.15,0 -297.22,0 -11.51,-0.02 -17.44,-9.44 -12.31,-19.74 z m 125.93,42.85 c -39.48,0.14 -78.96,0.06 -118.44,0.06 -1.22,0 -2.31,-0.05 -3.26,-0.16 -3.41,-0.39 -5.14,-1.54 -5.72,-3.72 -0.15,-0.55 -0.24,-1.15 -0.25,-1.83 -0.04,-4.21 2.49,-5.82 9.12,-5.82 7.19,0 14.38,0 21.57,0 44.21,0 88.41,0 132.62,0 28.15,0 56.3,0 84.45,0.01 22.81,0 45.63,0 68.44,0.01 1.71,0 3.45,0.03 5.14,0.3 2.95,0.47 4.55,2.35 4.6,5.34 0.05,3.22 -1.69,5.25 -4.8,5.61 -1.11,0.13 -2.22,0.17 -3.34,0.17 -1.6,0.01 -3.22,-0.05 -4.82,-0.1 -8.62,-0.25 -17.21,-0.06 -25.76,1.23 -3.46,0.52 -6.68,1.43 -9.65,2.72 -6.19,2.68 -11.32,7.03 -15.34,13.12 -3.57,5.4 -7.1,10.82 -12.1,15.06 -7.88,6.67 -15.39,7.1 -24.01,1.37 -7.36,-4.88 -13.11,-11.56 -19.48,-17.55 -2.93,-2.76 -5.9,-5.45 -9.4,-7.49 -8.01,-4.68 -14.77,-4.06 -21.62,2.21 -3.6,3.3 -7.07,6.76 -11.31,9.26 -6.37,3.75 -10.41,2.85 -14.67,-3.23 -1.64,-2.35 -3.18,-4.78 -4.73,-7.19 -4.06,-6.31 -9.57,-9.41 -17.24,-9.38 z m 135.37,153.66 c -4.05,0.78 -8.27,0.97 -12.41,0.98 -58.69,0.06 -117.38,0.16 -176.06,-0.03 -19.06,-0.06 -35.7,-6.73 -49.3,-20.38 -0.05,-0.05 -0.1,-0.09 -0.15,-0.14 -4.47,-3.91 -8.25,-8.34 -11.46,-13.17 -2.32,-3.48 -4.35,-7.15 -6.1,-11.02 -2.47,-5.45 0.73,-10.33 6.63,-10.45 4.56,-0.09 9.14,-0.49 13.66,0.91 2.58,0.8 5.36,0.99 8.08,0.23 5.61,-1.57 11.37,-1.2 17.09,-1.2 24.98,-0.01 49.95,0.02 74.93,-0.04 2.8,-0.01 5.29,0.55 7.84,1.76 10.63,5.05 21.3,10.04 33.31,10.84 7.78,0.52 14.58,-1.3 18.78,-8.61 1.77,-3.08 4.24,-4.15 7.81,-4.03 8.3,0.28 16.59,0.43 24.9,0.99 10.4,0.7 20.89,-2.07 31.31,-0.79 10.33,1.27 20.54,-0.24 30.81,-0.2 3.36,0.01 6.2,0.69 8.6,3.03 v 0 c 0.57,0.22 1.14,0.46 1.71,0.71 1.94,0.82 3.86,1.68 5.88,2.2 3.86,0.98 7.6,0.33 10,-3.13 1.4,-2.02 2.73,-3.29 5.19,-2.47 2.45,0.82 4.25,2.4 4.84,5.01 0.48,2.17 0.13,4.25 -0.91,6.26 -1.82,3.53 -3.81,6.84 -5.92,9.99 -11.54,17.17 -27.5,28.61 -49.06,32.75 z m 50.04,-70.47 c 4.2,-1.56 4.63,-4.25 4.06,-7.28 -0.03,-0.16 -0.06,-0.33 -0.1,-0.49 -3.71,-0.9 -6.6,0.7 -9.31,2.79 -0.24,0.19 -0.48,0.37 -0.72,0.57 0,0 0,0 -0.01,0 0,0 0,0 0,0 -2.03,4.38 -1.91,9.08 -2.18,13.77 -0.31,5.31 -3.31,6.57 -8.07,4.26 -0.03,-0.02 -0.06,-0.04 -0.1,-0.05 -5.67,-2.79 -9.89,-7.36 -14.74,-11.16 -1.22,0.3 -2.05,-0.15 -2.88,-1.11 -0.63,-0.72 -1.3,-1.37 -2.01,-1.95 -1.1,-0.89 -2.31,-1.59 -3.62,-2.07 -1.12,-0.41 -2.32,-0.68 -3.62,-0.76 -3.43,2.3 -3.44,3.98 -0.1,6.47 1.55,1.15 3.02,2.4 4.88,3.9 -6.12,3.01 -11.77,3.83 -18.01,1.15 -2.82,-1.21 -2.53,-2.17 -1.45,-4.28 0.94,-1.83 2.1,-3.7 1.75,-5.91 -0.03,-0.18 -0.05,-0.36 -0.1,-0.54 -1.14,0.05 -1.36,-0.79 -1.57,-1.63 -1.68,0.04 -3.37,0.08 -5.05,0.12 -0.11,0.89 -0.07,1.83 -0.26,2.68 -0.19,0.86 -0.6,1.63 -1.6,2.18 0,0 0,0 0,0 0,0 0,0 0,0 -12.38,9.85 -26.12,11.32 -41.18,6.58 1.5,-1.89 4.27,-2.3 5.06,-4.67 0.02,-0.85 0.08,-1.7 0.06,-2.55 -0.11,-4.14 -2.42,-3.94 -5.27,-2.67 0,0 0,0 0,0 0,0 0,0 0,0 -3.53,4.8 -9.37,5.85 -14.13,8.64 -3.67,2.15 -7.57,4.09 -9.51,7.96 -3.96,7.9 -10.87,8.45 -18.08,7.39 -8.1,-1.19 -15.74,-4.56 -23.05,-7.96 -7.19,-3.34 -14.21,-7.33 -21.14,-11.31 -4.37,-2.51 -9.24,-3.54 -13.86,-5.3 -0.34,-0.13 -0.69,-0.26 -1.03,-0.4 -2.13,0.71 -3.93,-1.22 -6.03,-0.78 0,0 0,0 0,0 0,0 0,0 0,0 -2.49,0.18 -5,0.49 -7.02,-1.52 -2.36,-0.07 -4.72,-0.14 -7.08,-0.2 -0.53,-0.02 -1.06,-0.03 -1.59,-0.05 v 0 c -1.43,0.06 -2.86,0.14 -4.29,0.19 -2.55,0.08 -3.72,2.01 -3.71,3.93 0,1.84 1.61,3.19 3.82,3.06 6.14,-0.36 12.15,0.95 18.22,1.42 3.49,0.27 6.46,1.89 10.96,2.38 -2.64,1.37 -4.3,2.23 -5.96,3.09 0,0 0,0 0,0 -0.3,0.45 -0.58,1.29 -0.89,1.3 -6.59,0.18 -13.21,1.19 -19.76,-0.5 0,0 0,0 0,0 0,0 0,0 0,0 -0.33,-0.26 -0.66,-0.52 -0.98,-0.78 0,0 0,0 0,0 -6.9,-0.34 -12.67,-4.26 -19.1,-6.12 -3.62,-1.04 -7.07,-2.68 -10.92,-2.78 -3.75,0.06 -7.5,0.11 -11.25,0.17 -1.53,1.47 -0.81,3.24 -0.64,4.93 1.25,0.15 2.51,0.24 3.75,0.46 1.01,0.18 1.29,1.03 1.22,1.91 -0.09,1.11 -0.92,1.25 -1.83,1.18 -7.92,2.96 -15.54,3.8 -22.43,-2.63 -1.9,-1.77 -2.01,-2.84 -0.16,-4.76 2.33,-2.43 4.91,-4.11 8.22,-4.47 2.29,-0.25 3.52,-1.42 3.97,-3.59 0,0 0,0 0,0 -1.74,-1.39 -2.26,-3.98 -5.7,-3.6 -4.88,0.53 -8.37,2.73 -11.37,6.25 -0.65,0.77 -1.1,1.71 -1.69,2.54 -0.47,0.65 -1.02,1.23 -1.86,1.58 0,0 0,0 0,0 -5.47,5.05 -10.99,10.02 -18.94,10.66 -0.12,1.01 -0.7,1.54 -1.7,1.49 -3.67,-0.18 -7.41,0.8 -11.02,-0.32 -0.36,-0.11 -0.71,-0.23 -1.07,-0.39 0,0 0,0 0,0 0,0 0,0 0,0 -0.6,-0.27 -1.2,-0.54 -1.8,-0.82 0,0 0,0 0,0 -1.11,-0.14 -2.23,-0.27 -3.34,-0.41 0,0 0,0 0,0 0,0 0,0 0,0 0,0 0,0 0,0 -2.88,-1.57 -2.88,-2.57 0,-4.91 0.67,-1.14 1.59,-2.02 2.57,-2.85 0.9,-0.76 1.84,-1.47 2.69,-2.29 0.92,-2.27 3,-2.88 5.05,-3.54 4.06,-2.88 8.12,-5.77 12.18,-8.65 0.49,-0.59 1.01,-1.12 1.56,-1.63 2.1,-1.94 4.6,-3.34 7.15,-4.41 1.49,-0.63 4.12,0.32 5.71,1.36 1.99,1.3 3.96,1.34 6.07,1.41 0,0 0,0 0,0 0,0 0,0 0,0 37.6,-0.03 75.19,-0.07 112.79,-0.08 58.31,-0.01 116.63,-0.01 174.94,-0.01 1.82,0 3.63,0 5.45,0 3.86,-0.65 7.41,-1.99 10.51,-4.46 0.46,-0.36 0.85,-0.85 1.28,-1.27 0.55,-0.54 1.16,-0.98 2.09,-0.94 0,0 0,0 0,0 0.49,-0.02 0.98,-0.03 1.48,-0.04 1.09,-0.02 2.17,-0.04 3.23,-0.2 3.02,-0.46 5.19,0.42 6.76,3.19 1.24,2.19 3.04,4 5.03,5.62 2.45,2 4.51,4.31 4.4,7.81 -0.11,3.95 4.28,5.25 5.42,9.11 -4.78,-0.46 -8.18,2.74 -12.35,3.7 0,0 0,0 0,0 -0.13,0.26 -0.26,0.53 -0.39,0.8 -0.22,0.07 -0.43,0.14 -0.65,0.2 -3.22,1 -6.44,1.87 -9.4,-0.91 -5.12,-0.61 -8.88,-4.32 -14.66,-6.2 z"
         id="path78"
         inkscape:connector-curvature="0"
         style="fill:#000101" /></g><g
       id="g110"><g
         id="g84"><path
           class="st10"
           d="m 604.39,457.69 c 3.71,0.02 7.32,3.93 7.19,7.77 -0.13,3.68 -3.89,7.39 -7.6,7.49 -4.32,0.11 -7.99,-3.82 -7.86,-8.45 0.1,-3.94 3.62,-6.83 8.27,-6.81 z"
           id="path82"
           inkscape:connector-curvature="0"
           style="fill:#ffb026" /></g><g
         id="g88"><path
           class="st11"
           d="m 602.08,416.26 c -3.98,-0.02 -6.7,-2.23 -6.78,-5.52 -0.08,-3.47 2.91,-6.58 6.37,-6.61 4.19,-0.04 6.54,2.18 6.52,6.16 -0.04,3.89 -2.18,5.99 -6.11,5.97 z"
           id="path86"
           inkscape:connector-curvature="0"
           style="fill:#ffb02a" /></g><g
         id="g92"><path
           class="st11"
           d="m 577.82,436.1 c 2.19,0.47 5.06,0.98 5.25,4.5 0.21,3.73 -3.02,7.43 -6.2,7.47 -3.02,0.04 -5.85,-3.35 -5.75,-6.87 0.09,-3.08 2.63,-5.19 6.7,-5.1 z"
           id="path90"
           inkscape:connector-curvature="0"
           style="fill:#ffb02a" /></g><g
         id="g96"><path
           class="st12"
           d="m 524.52,458.85 c -0.24,-3.33 2.09,-5.6 5.04,-5.17 2.66,0.39 7.23,-1.34 7.83,3.74 0.31,2.61 -4.52,7.28 -7.5,7.08 -3.12,-0.21 -5.44,-1.68 -5.37,-5.65 z"
           id="path94"
           inkscape:connector-curvature="0"
           style="fill:#ffaa28" /></g><g
         id="g100"><path
           class="st13"
           d="m 540.78,428.32 c -3.83,0.24 -5.21,-1.91 -5.68,-4.63 -0.4,-2.3 2.82,-5.46 5.16,-5.44 2.74,0.02 6.88,3.35 6.68,5.49 -0.39,4.15 -3.91,3.88 -6.16,4.58 z"
           id="path98"
           inkscape:connector-curvature="0"
           style="fill:#ffaa2b" /></g><g
         id="g104"><path
           class="st14"
           d="m 640.15,424.87 c -2.09,0.16 -3.73,-0.09 -3.54,-2.83 0.18,-2.53 1.33,-4.06 3.9,-4.05 2.6,0.01 4.58,1.58 4.44,4.07 -0.15,2.55 -2.5,3.11 -4.8,2.81 z"
           id="path102"
           inkscape:connector-curvature="0"
           style="fill:#ffac2e" /></g><g
         id="g108"><path
           class="st15"
           d="m 672.71,452.8 c 4.53,2.04 7.7,5.24 8.68,10.16 1.16,5.82 -1.4,10.31 -6.15,13.11 -4.06,2.39 -8.64,2.27 -13.12,-0.55 6.32,0.28 11.04,-2.32 14.19,-7.43 3.81,-6.18 0.61,-10.8 -3.6,-15.29 z"
           id="path106"
           inkscape:connector-curvature="0"
           style="fill:#ff9a13" /></g></g></g><g
     id="g148"
     transform="matrix(0.82123227,0,0,0.82123227,173.20471,83.379087)"><g
       id="g128"><g
         id="g126"><g
           id="g116"><path
             class="st16"
             d="M 123.82,390.1 H 20.21 v 184.03 c 0.11,1.68 0.76,18.74 -13.08,29.02 -8.86,6.58 -18.69,6.5 -22.51,6.17 -3.62,0.2 -14.11,-0.16 -23.18,-8.08 C -50.2,591.08 -49.99,576.7 -49.82,573.92 L -49.83,390.1 H -154.3 v 184.03 c -0.84,18.35 1.69,45.23 18.46,70.05 19,28.13 50.32,45.42 93.1,51.42 9,1.27 18.18,1.68 27.34,1.28 3.63,0.28 77.77,6.51 117.8,-49.49 19.64,-27.47 21.86,-57.64 21.43,-73.17 V 390.1 Z"
             id="path114"
             inkscape:connector-curvature="0"
             style="fill:#ff5a19" /></g><g
           id="g120"><path
             class="st16"
             d="m 432.39,496.29 c -0.13,-13.08 -2.94,-38.53 -20.16,-62.16 -28.41,-39 -74.46,-43.53 -83.4,-44.04 l -157.06,0.01 v 301.37 h 100.57 v -93.33 l 59.1,0.01 c 11.86,0.08 48.12,0.46 75.15,-26.57 27.14,-27.14 26.37,-53.86 25.91,-69.83 -0.06,-1.98 -0.11,-3.8 -0.11,-5.46 z m -106.45,19.23 c -2.67,3.63 -6.41,6.52 -10.82,8.36 -3.2,1.32 -6.35,1.63 -9.39,1.93 -1.39,0.44 -3.57,1.03 -5.89,1.3 l -2.54,0.26 c -0.41,0.13 -1.16,0.3 -1.92,0.36 l -0.89,0.05 -0.23,-3.58 0.22,3.61 -1.08,0.16 c -1.32,0.16 -2.54,0.23 -3.8,0.22 l -0.37,0.08 c -1.2,0.28 -2.33,0.41 -3.46,0.41 -0.04,0 -0.08,0 -0.12,0 l -1.64,-0.04 c -1.39,0.01 -2.94,-0.02 -4.47,-0.44 -1.22,0.22 -2.37,0.13 -3.42,-0.27 -7.58,-2.91 -6.38,-11.01 -5.8,-14.9 L 270.29,511 c 0.13,-6.21 0.11,-12.43 0.1,-18.65 l -0.01,-6.7 0.18,-0.88 -0.07,-0.68 c -0.3,-1.49 -0.96,-5.38 2.17,-8.62 2.2,-2.3 5.18,-3.18 8.84,-2.63 1.71,0.02 3.63,0.13 5.4,0.3 l 1.35,0.13 c 4.14,0.35 8.22,0.77 12.32,1.39 l 2.49,0.36 c 3.12,0.44 6.35,0.89 9.59,1.89 4.63,1.41 7.9,3.64 10.75,5.85 0.88,0.68 1.54,1.58 1.93,2.7 1.13,1.11 2.1,2.29 2.88,3.53 1.6,2.52 2.43,5.97 2.27,9.44 0.79,5.07 -1.07,12.38 -4.54,17.09 z"
             id="path118"
             inkscape:connector-curvature="0"
             style="fill:#ff5a19" /></g><g
           id="g124"><polygon
             class="st16"
             points="1015.19,528.14 937.4,528.14 937.4,466.15 1097.13,466.15 1097.13,390.1 837.36,390.1 837.36,691.47 937.4,691.47 937.4,597.96 1015.19,597.96 "
             id="polygon122"
             style="fill:#ff5a19" /></g></g></g><g
       id="g146"><g
         id="g132"><path
           d="m 830.15,698.68 h 114.46 v -93.51 h 77.79 v -84.24 h -77.79 v -47.57 h 159.73 V 382.88 H 830.15 Z m 7.21,-308.58 h 259.77 v 76.05 H 937.4 v 61.99 h 77.79 v 69.82 H 937.4 v 93.51 H 837.36 Z"
           id="path130"
           inkscape:connector-curvature="0" /></g><g
         id="g136"><path
           d="m 439.6,496.27 v -0.04 c -0.14,-13.94 -3.13,-41.09 -21.54,-66.35 -30.33,-41.63 -79.31,-46.45 -89.02,-47 H 164.56 v 315.79 h 114.99 v -93.33 l 51.82,0.01 c 12.61,0.08 51.14,0.5 80.32,-28.68 29.33,-29.33 28.52,-58 28.02,-75.13 -0.06,-1.91 -0.11,-3.67 -0.11,-5.27 z m -33.01,75.31 c -27.03,27.04 -63.29,26.65 -75.15,26.57 l -59.1,-0.01 v 93.33 H 171.77 V 390.1 l 157.06,-0.01 c 8.94,0.51 54.99,5.04 83.4,44.04 17.23,23.63 20.03,49.08 20.16,62.16 0,1.66 0.05,3.48 0.11,5.46 0.45,15.96 1.22,42.69 -25.91,69.83 z"
           id="path134"
           inkscape:connector-curvature="0" /></g><g
         id="g140"><path
           d="m 328.22,488.97 c -0.78,-1.24 -1.75,-2.42 -2.88,-3.53 -0.39,-1.11 -1.05,-2.01 -1.93,-2.7 -2.85,-2.2 -6.12,-4.44 -10.75,-5.85 -3.25,-0.99 -6.47,-1.44 -9.59,-1.89 l -2.49,-0.36 c -4.11,-0.63 -8.18,-1.04 -12.32,-1.39 l -1.35,-0.13 c -1.77,-0.17 -3.69,-0.28 -5.4,-0.3 -3.66,-0.55 -6.63,0.34 -8.84,2.63 -3.13,3.24 -2.47,7.13 -2.17,8.62 l 0.07,0.68 -0.18,0.88 0.01,6.7 c 0.01,6.22 0.03,12.44 -0.1,18.65 l 0.03,2.03 c -0.58,3.89 -1.78,11.99 5.8,14.9 1.05,0.4 2.2,0.49 3.42,0.27 1.54,0.42 3.08,0.45 4.47,0.44 l 1.64,0.04 c 0.04,0 0.08,0 0.12,0 1.13,0 2.26,-0.13 3.46,-0.41 l 0.37,-0.08 c 1.26,0.01 2.48,-0.06 3.8,-0.22 l 1.08,-0.16 -0.22,-3.61 0.23,3.58 0.89,-0.05 c 0.76,-0.06 1.51,-0.23 1.92,-0.36 l 2.54,-0.26 c 2.32,-0.27 4.5,-0.86 5.89,-1.3 3.04,-0.3 6.19,-0.61 9.39,-1.93 4.41,-1.84 8.15,-4.73 10.82,-8.36 3.47,-4.71 5.33,-12.03 4.55,-17.11 0.15,-3.45 -0.68,-6.9 -2.28,-9.42 z m -8.08,22.29 v 0 c -1.89,2.57 -4.58,4.63 -7.78,5.96 -2.2,0.91 -4.69,1.16 -7.32,1.42 l -0.92,0.16 c -1.6,0.48 -3.32,0.95 -5.08,1.15 l -3.11,0.38 c -0.37,0.08 -0.73,0.19 -1.43,0.25 l -2.02,0.23 c -1.2,0.16 -2.32,0.19 -3.5,0.14 l -0.8,-0.04 -1.02,0.44 c -0.49,0.08 -1.11,0.1 -2.03,0.11 l -1.2,-0.02 c -0.95,0 -1.94,0.01 -2.66,-0.25 l -0.59,-0.21 -1.94,0.23 c -1.49,-0.57 -2.06,-1.78 -1.23,-7.67 l 0.01,-2.39 c 0.13,-6.26 0.11,-12.54 0.09,-18.8 l 0.03,-6.11 0.08,-0.37 -0.05,-2.36 c -0.34,-2.05 -0.22,-2.59 0.2,-3.02 0.39,-0.41 0.91,-0.77 2.79,-0.47 l 0.36,0.06 0.37,-0.01 c 1.7,-0.04 3.27,0.12 4.85,0.27 l 1.42,0.13 c 3.98,0.34 7.9,0.74 11.85,1.34 l 2.57,0.37 c 2.97,0.42 5.78,0.82 8.49,1.65 3.16,0.96 5.52,2.43 8.04,4.35 l 0.18,1.08 0.96,0.84 c 0.99,0.88 1.77,1.78 2.39,2.75 0.8,1.27 1.25,3.28 1.19,5.92 0.54,3.89 -0.83,9.27 -3.19,12.49 z"
           id="path138"
           inkscape:connector-curvature="0" /></g><g
         id="g144"><path
           d="M 131.03,382.88 H 13 v 191.47 c 0.04,0.61 0.8,14.86 -10.18,23.01 -6.87,5.1 -14.58,5.01 -18.07,4.77 -3.21,0.13 -11.48,-0.13 -18.57,-6.32 -9.11,-7.95 -8.94,-19.28 -8.81,-21.68 V 382.88 h -118.89 v 191.08 c -0.88,19.27 1.82,47.8 19.69,74.26 20.19,29.89 53.19,48.23 98.07,54.52 9.44,1.33 19.09,1.79 28.17,1.33 0.64,0.06 4.12,0.35 9.61,0.35 22.74,0 80.07,-5.06 114.23,-52.83 20.87,-29.18 23.23,-61.12 22.78,-77.47 V 382.88 Z M 102.39,647.4 c -40.02,56 -114.17,49.77 -117.8,49.49 -9.16,0.39 -18.34,-0.01 -27.34,-1.28 -42.78,-6 -74.1,-23.3 -93.1,-51.42 -16.77,-24.82 -19.3,-51.71 -18.46,-70.05 V 390.1 h 104.47 l 0.01,183.82 c -0.16,2.77 -0.37,17.16 11.26,27.32 9.07,7.92 19.56,8.27 23.18,8.08 3.82,0.33 13.65,0.41 22.51,-6.17 13.84,-10.28 13.19,-27.34 13.08,-29.02 V 390.1 h 103.61 v 184.13 c 0.43,15.53 -1.78,45.7 -21.42,73.17 z"
           id="path142"
           inkscape:connector-curvature="0" /></g></g></g><g
     id="g156"
     transform="matrix(0.82123227,0,0,0.82123227,173.20471,83.379087)"><g
       id="g154"><path
         class="st16"
         d="m 1271.58,382.83 c -87.22,0 -158.17,70.95 -158.17,158.17 0,87.22 70.95,158.18 158.17,158.18 87.22,0 158.18,-70.96 158.18,-158.18 0,-87.22 -70.96,-158.17 -158.18,-158.17 z m 0.01,193.76 c -19.63,0 -35.59,-15.97 -35.59,-35.59 0,-19.62 15.97,-35.59 35.59,-35.59 19.63,0 35.59,15.97 35.59,35.59 0,19.62 -15.97,35.59 -35.59,35.59 z"
         id="path150"
         inkscape:connector-curvature="0"
         style="fill:#ff5a19" /><path
         d="m 1271.58,703.18 c -89.42,0 -162.17,-72.75 -162.17,-162.18 0,-89.42 72.75,-162.17 162.17,-162.17 89.42,0 162.18,72.75 162.18,162.17 0,89.42 -72.75,162.18 -162.18,162.18 z m 0,-316.35 c -85.01,0 -154.17,69.16 -154.17,154.17 0,85.01 69.16,154.18 154.17,154.18 85.01,0 154.18,-69.16 154.18,-154.18 0,-85.01 -69.16,-154.17 -154.18,-154.17 z m 0.01,193.76 c -21.83,0 -39.59,-17.76 -39.59,-39.59 0,-21.83 17.76,-39.59 39.59,-39.59 21.83,0 39.59,17.76 39.59,39.59 0,21.83 -17.76,39.59 -39.59,39.59 z m 0,-71.18 c -17.42,0 -31.59,14.17 -31.59,31.59 0,17.42 14.17,31.59 31.59,31.59 17.42,0 31.59,-14.17 31.59,-31.59 0,-17.42 -14.17,-31.59 -31.59,-31.59 z"
         id="path152"
         inkscape:connector-curvature="0" /></g></g><g
     id="g164"
     transform="matrix(0.82123227,0,0,0.82123227,173.20471,83.379087)"><g
       id="g162"><path
         class="st16"
         d="m 1608.58,382.83 c -87.22,0 -158.17,70.95 -158.17,158.17 0,87.22 70.95,158.18 158.17,158.18 87.22,0 158.18,-70.96 158.18,-158.18 0,-87.22 -70.96,-158.17 -158.18,-158.17 z m 0.01,193.76 c -19.63,0 -35.59,-15.97 -35.59,-35.59 0,-19.62 15.97,-35.59 35.59,-35.59 19.63,0 35.59,15.97 35.59,35.59 0,19.62 -15.97,35.59 -35.59,35.59 z"
         id="path158"
         inkscape:connector-curvature="0"
         style="fill:#ff5a19" /><path
         d="m 1608.58,703.18 c -89.42,0 -162.17,-72.75 -162.17,-162.18 0,-89.42 72.75,-162.17 162.17,-162.17 89.42,0 162.18,72.75 162.18,162.17 0,89.42 -72.75,162.18 -162.18,162.18 z m 0,-316.35 c -85.01,0 -154.17,69.16 -154.17,154.17 0,85.01 69.16,154.18 154.17,154.18 85.01,0 154.18,-69.16 154.18,-154.18 0,-85.01 -69.16,-154.17 -154.18,-154.17 z m 0.01,193.76 c -21.83,0 -39.59,-17.76 -39.59,-39.59 0,-21.83 17.76,-39.59 39.59,-39.59 21.83,0 39.59,17.76 39.59,39.59 0,21.83 -17.76,39.59 -39.59,39.59 z m 0,-71.18 c -17.42,0 -31.59,14.17 -31.59,31.59 0,17.42 14.17,31.59 31.59,31.59 17.42,0 31.59,-14.17 31.59,-31.59 0,-17.42 -14.17,-31.59 -31.59,-31.59 z"
         id="path160"
         inkscape:connector-curvature="0" /></g></g><g
     id="g170"
     transform="matrix(0.82123227,0,0,0.82123227,173.20471,83.379087)"><path
       class="st16"
       d="m 2078.76,540.67 c 0,-86.45 -69.73,-156.92 -155.9,-158.14 v -0.03 h -17.53 -34.97 -36.5 -40.06 v 39.52 238.3 38.86 h 40.06 33.44 38.02 17.53 v -0.36 c 86.18,-1.23 155.91,-71.7 155.91,-158.15 z m -154.9,35.51 h -3 -15.53 v -70.68 -0.32 h 18.54 c 18.57,1.18 32.32,16.63 32.32,35.5 0,18.87 -13.76,34.32 -32.33,35.5 z"
       id="path166"
       inkscape:connector-curvature="0"
       style="fill:#ff5a19" /><path
       d="M 1926.86,703.18 H 1789.8 V 378.5 h 137.06 v 0.13 c 41.28,1.58 79.9,18.6 109.11,48.2 30.17,30.57 46.79,71 46.79,113.84 0,42.84 -16.62,83.27 -46.79,113.85 -29.21,29.6 -67.83,46.63 -109.11,48.2 z m -129.05,-8 h 121.06 v -0.3 l 3.94,-0.06 c 83.79,-1.19 151.95,-70.34 151.95,-154.15 0,-83.8 -68.17,-152.95 -151.95,-154.14 l -2,-0.03 h -123 z m 126.18,-115 h -22.66 l -0.04,-79 22.83,0.01 c 20.56,1.31 36.06,18.28 36.06,39.49 0,21.21 -15.5,38.19 -36.06,39.5 z m -14.66,-8 h 14.4 c 16.23,-1.09 28.45,-14.62 28.45,-31.5 0,-16.88 -12.22,-30.4 -28.45,-31.5 h -14.4 z"
       id="path168"
       inkscape:connector-curvature="0" /></g></svg>